<?xml version="1.0" encoding="utf-8" ?><svg xmlns="http://www.w3.org/2000/svg" xmlns:xlink="http://www.w3.org/1999/xlink" width="1042" height="1042" viewBox="0 0 1042 1042"><defs><linearGradient id="gradient_0" gradientUnits="userSpaceOnUse" x1="648.6358" y1="603.62836" x2="225.29253" y2="320.94653"><stop offset="0" stop-color="#2D63D1"/><stop offset="1" stop-color="#4F8CFC"/></linearGradient></defs><path fill="url(#gradient_0)" transform="scale(1.01758 1.01758)" d="M511.715 203.004C594.146 203.057 675.828 218.64 752.489 248.937L752.405 437.195L752.493 505.943C752.642 538.616 754.876 567.586 744.914 599.844C733.251 637.605 709.323 670.349 681.545 697.923C643.234 735.953 597.834 764.759 550.9 790.824C537.985 797.997 524.721 805.658 511.564 812.269C506.068 810.332 499.341 806.151 494.152 803.275C407.773 755.393 308.906 696.789 278.065 596.465C270.178 570.811 271.549 535.467 271.624 508.881L271.858 439.474L272.076 248.744C355.494 218.657 422.082 203.273 511.715 203.004Z"/><path fill="#043DB7" transform="scale(1.01758 1.01758)" d="M511.715 203.004C594.146 203.057 675.828 218.64 752.489 248.937L752.405 437.195L752.493 505.943C752.642 538.616 754.876 567.586 744.914 599.844C733.251 637.605 709.323 670.349 681.545 697.923C643.234 735.953 597.834 764.759 550.9 790.824C537.985 797.997 524.721 805.658 511.564 812.269C510.799 742.046 512.262 671.643 511.016 601.403C510.972 598.963 510.851 595.053 511.632 592.858C511.121 592.218 510.764 591.565 510.33 590.862C510.527 588.804 510.778 589.083 512.146 587.112C510.664 584.187 511.786 516.501 511.885 506.603C515.939 506.649 519.504 506.714 523.543 506.424L594.507 506.505L594.657 435.504L512.023 435.541C512.074 420.739 512.145 405.876 512.023 391.08C511.951 382.44 511.403 374.221 511.569 365.503L590.906 365.512L591.007 399.596C615.523 400.195 641.425 399.828 665.987 399.615L665.841 286.57C614.911 286.014 562.947 286.551 511.932 286.551C512.226 259.063 511.039 230.055 511.715 203.004Z"/><path fill="#FEFEFE" transform="scale(1.01758 1.01758)" d="M650.706 510.332C658.506 518.706 666.626 528.434 673.87 537.307L605.856 612.907C593.572 626.54 579.662 640.799 568.148 654.778C549.419 634.66 530.907 612.012 511.632 592.858C511.121 592.218 510.764 591.565 510.33 590.862C510.527 588.804 510.778 589.083 512.146 587.112C519.707 578.762 529.754 566.55 537.201 558.97C547.184 574.101 557.37 589.098 567.755 603.955C596.274 573.393 622.466 540.787 650.706 510.332Z"/><path fill="#FEFEFE" transform="scale(1.01758 1.01758)" d="M511.932 286.551C562.947 286.551 614.911 286.014 665.841 286.57L665.987 399.615C641.425 399.828 615.523 400.195 591.007 399.596L590.906 365.512L511.569 365.503C511.403 374.221 511.951 382.44 512.023 391.08C512.145 405.876 512.074 420.739 512.023 435.541L594.657 435.504L594.507 506.505L523.543 506.424C519.988 505.913 509.018 506.071 505.327 506.103L473.985 506.432C474.109 530.638 473.974 554.844 473.58 579.047L492.506 578.996L492.443 654.508L372.466 654.583L372.489 579.009L392.975 578.972L393.405 365.497L372.425 365.586L372.253 287.005C418.811 286.547 465.371 286.396 511.932 286.551Z"/><path fill="#4178E6" transform="scale(1.01758 1.01758)" d="M474.417 365.492L511.569 365.503C511.403 374.221 511.951 382.44 512.023 391.08C512.145 405.876 512.074 420.739 512.023 435.541C499.517 435.604 487.012 435.582 474.507 435.473L474.417 365.492Z"/><defs><linearGradient id="gradient_1" gradientUnits="userSpaceOnUse" x1="566.13367" y1="548.35455" x2="169.6947" y2="302.78177"><stop offset="0" stop-color="#366DDC"/><stop offset="1" stop-color="#508DFD"/></linearGradient></defs><path fill="url(#gradient_1)" transform="scale(1.01758 1.01758)" d="M224.114 212.733C252.017 200.63 274.456 191.099 303.556 181.705C372.857 159.334 439.534 152.473 511.574 151.894C511.517 165.023 511.531 178.152 511.617 191.281C510.407 191.563 509.834 191.639 508.594 191.774C440.939 193.497 377.328 201.483 312.455 221.965C293.025 228.1 279.472 234.057 260.999 241.012C260.691 307.414 260.794 373.817 261.309 440.218C261.32 460.296 261.288 480.419 261.255 500.49C261.198 535.532 257.954 569.233 268.455 603.266C281.012 643.961 305.419 677.272 335.274 707.078C362.704 734.463 394.403 756.278 426.792 777.165C422.364 780.325 398.35 800.475 394.904 804.473C326.968 755.549 259.036 699.799 232.887 616.714C222.408 583.421 224.063 549.366 224.201 514.953L224.286 445.125L224.114 212.733Z"/><defs><linearGradient id="gradient_2" gradientUnits="userSpaceOnUse" x1="798.73779" y1="593.6402" x2="664.33252" y2="541.0097"><stop offset="0" stop-color="#02135E"/><stop offset="1" stop-color="#0438AF"/></linearGradient></defs><path fill="url(#gradient_2)" transform="scale(1.01758 1.01758)" d="M772.548 262.969C774.804 262.689 773.914 263.14 775.5 261.958C776.712 256.791 785.937 233.446 791.061 232.635C794.664 236.679 788.811 245.55 794.767 251.864C795.753 252.908 796.491 254.374 797.793 254.502C799.457 251.525 798.124 223.922 798.939 217.855C799.156 251.319 799.173 284.785 798.99 318.25L799 435.338L798.982 514.781C798.98 547.494 800.749 583.346 790.84 615.073C758.89 717.37 661.201 786.602 573.212 838.737C562.043 845.355 545.578 855.111 533.899 860.313C536.258 855.221 544.919 857.185 547.158 848.837C550.815 835.205 557.288 822.148 562.313 808.959C563.944 804.677 567.88 801.492 568.122 796.533L567.619 796.064C565.174 795.765 563.911 798.74 560.826 798.282C571.464 791.118 583.922 784.332 595.005 777.394C662.924 734.878 731.587 681.204 755.988 601.404C764.949 572.1 763.634 545.712 763.568 515.489L763.517 451.552L763.619 278.804C764.95 281.414 764.449 283.776 764.612 286.986C765.503 288.088 765.431 288.138 766.662 288.783C767.89 286.951 766.59 284.452 767.845 283.146C771.737 279.094 772.569 269.523 774.49 263.023C772.946 264.492 771.042 266.56 769.18 267.414C770.348 265.947 772.151 264.694 772.548 262.969Z"/><path fill="#043DB7" transform="scale(1.01758 1.01758)" d="M511.574 151.894C520.057 151.521 531.485 152.284 540.189 152.552C610.97 154.196 681.03 167.176 747.703 190.996C760.366 195.451 772.802 200.527 784.965 206.208C789.059 208.079 795.321 210.774 799.015 212.889L798.939 217.855C798.124 223.922 799.457 251.525 797.793 254.502C796.491 254.374 795.753 252.908 794.767 251.864C788.811 245.55 794.664 236.679 791.061 232.635C785.937 233.446 776.712 256.791 775.5 261.958C773.914 263.14 774.804 262.689 772.548 262.969C772.151 264.694 770.348 265.947 769.18 267.414C771.042 266.56 772.946 264.492 774.49 263.023C772.569 269.523 771.737 279.094 767.845 283.146C766.59 284.452 767.89 286.951 766.662 288.783C765.431 288.138 765.503 288.088 764.612 286.986C764.449 283.776 764.95 281.414 763.619 278.804C762.989 268.775 763.518 251.953 763.506 241.407C742.832 231.785 722.476 225.787 700.856 219.209C636.345 199.58 575.831 192.198 508.594 191.774C509.834 191.639 510.407 191.563 511.617 191.281C511.531 178.152 511.517 165.023 511.574 151.894Z"/><path fill="#1447BC" transform="scale(1.01758 1.01758)" d="M769.18 267.414L768.317 268.26L768.082 267.64C768.866 265.931 770.531 263.228 772.548 262.969C772.151 264.694 770.348 265.947 769.18 267.414Z"/><path fill="#043DB7" transform="scale(1.01758 1.01758)" d="M426.792 777.165C445.311 788.339 463.513 798.94 482.556 809.221C492.232 814.445 501.502 819.98 511.362 824.982C522.346 819.406 533.226 813.629 543.999 807.655C545.93 806.578 559.457 798.775 560.826 798.282C563.911 798.74 565.174 795.765 567.619 796.064L568.122 796.533C567.88 801.492 563.944 804.677 562.313 808.959C557.288 822.148 550.815 835.205 547.158 848.837C544.919 857.185 536.258 855.221 533.899 860.313C531.952 862.178 515.503 870.331 512.04 872.178C498.363 865.705 485.306 857.789 471.993 850.671C445.011 836.243 420.242 821.608 394.904 804.473C398.35 800.475 422.364 780.325 426.792 777.165Z"/></svg>